<svg width="800" height="800" viewBox="0 0 800 800" fill="none" xmlns="http://www.w3.org/2000/svg">
<rect width="800" height="800" rx="150" fill="white"/>
<path fill-rule="evenodd" clip-rule="evenodd" d="M326.887 559.712C332.751 553.849 342.26 553.855 348.116 559.727L350.604 562.223C356.449 568.084 356.441 577.572 350.587 583.424L298.629 635.358C292.768 641.216 283.266 641.212 277.41 635.348L274.932 632.866C269.081 627.007 269.085 617.515 274.94 611.66L326.887 559.712ZM278.102 510.917C283.96 505.059 293.458 505.059 299.315 510.917L301.81 513.412C307.668 519.269 307.668 528.767 301.81 534.625L225.476 610.959C219.618 616.816 210.121 616.816 204.263 610.959L201.768 608.464C195.911 602.606 195.911 593.109 201.768 587.251L278.102 510.917ZM229.319 462.171C235.177 456.313 244.674 456.313 250.532 462.171L253.026 464.665C258.884 470.523 258.884 480.021 253.026 485.878L152.314 586.59C146.456 592.448 136.959 592.448 131.101 586.59L128.606 584.096C122.749 578.238 122.749 568.74 128.607 562.883L229.319 462.171ZM447.245 195.477C552.102 90.6201 660.581 143.032 661.687 143.568V143.568C664.949 145.178 667.59 147.818 669.199 151.08V151.08C669.735 152.153 722.147 260.631 617.257 365.522L578.502 404.276C575.704 407.075 574.125 410.866 574.109 414.824L573.386 598.332C573.371 602.29 571.792 606.081 568.993 608.879L518.477 659.395C512.62 665.252 503.124 665.253 497.266 659.397L410.326 572.487L240.281 402.442L153.337 315.468C147.48 309.61 147.481 300.114 153.338 294.256L203.853 243.742C206.652 240.942 210.445 239.363 214.403 239.348L397.908 238.657C401.867 238.642 405.659 237.063 408.458 234.264L447.245 195.477ZM540.326 478.731C540.378 465.339 524.187 458.597 514.718 468.069L444.639 538.17C438.782 544.029 438.783 553.527 444.643 559.384L497.266 611.983C503.124 617.838 512.62 617.837 518.477 611.98L535.527 594.93C538.326 592.131 539.905 588.34 539.92 584.381L540.326 478.731ZM643.536 177.76C642.273 173.603 639.069 170.383 634.918 169.101C608.196 160.848 540.274 149.833 470.953 219.185L298.303 391.835C292.445 397.693 292.445 407.19 298.303 413.048L399.718 514.464C405.576 520.322 415.074 520.321 420.932 514.463L593.549 341.814C662.56 272.803 651.647 204.462 643.536 177.76ZM344.683 298.039C354.151 288.571 347.412 272.384 334.022 272.433L228.354 272.815C224.395 272.829 220.602 274.409 217.802 277.208L200.753 294.257C194.896 300.114 194.895 309.61 200.751 315.468L253.382 368.123C259.239 373.983 268.739 373.984 274.597 368.125L344.683 298.039Z" fill="black"/>
<path fill-rule="evenodd" clip-rule="evenodd" d="M569.513 227.233C554.49 226.83 530.782 230.988 506.773 254.998L494.868 266.869L545.872 317.838L557.742 306.001C581.92 281.791 586.245 258.552 585.642 243.295L585.005 227.836L569.513 227.233Z" fill="black"/>
</svg>
